<svg width="32" height="32" viewBox="0 0 32 32" fill="none" xmlns="http://www.w3.org/2000/svg">
<circle cx="16" cy="16" r="16" fill="#BA2626"/>
<mask id="mask0_20186_305" style="mask-type:alpha" maskUnits="userSpaceOnUse" x="7" y="7" width="17" height="18">
<rect x="7" y="7" width="17" height="18" fill="#D9D9D9"/>
</mask>
<g mask="url(#mask0_20186_305)">
<path d="M12.4997 23.2887C12.0988 23.2887 11.7556 23.1459 11.4702 22.8605C11.1847 22.575 11.0419 22.2318 11.0419 21.8309C11.0419 21.4301 11.1847 21.0869 11.4702 20.8014C11.7556 20.5159 12.0988 20.3732 12.4997 20.3732C12.9006 20.3732 13.2437 20.5159 13.5292 20.8014C13.8147 21.0869 13.9574 21.4301 13.9574 21.8309C13.9574 22.2318 13.8147 22.575 13.5292 22.8605C13.2437 23.1459 12.9006 23.2887 12.4997 23.2887ZM19.7884 23.2887C19.3875 23.2887 19.0443 23.1459 18.7588 22.8605C18.4734 22.575 18.3306 22.2318 18.3306 21.8309C18.3306 21.4301 18.4734 21.0869 18.7588 20.8014C19.0443 20.5159 19.3875 20.3732 19.7884 20.3732C20.1892 20.3732 20.5324 20.5159 20.8179 20.8014C21.1034 21.0869 21.2461 21.4301 21.2461 21.8309C21.2461 22.2318 21.1034 22.575 20.8179 22.8605C20.5324 23.1459 20.1892 23.2887 19.7884 23.2887ZM11.8801 11.6268L13.6294 15.2711H18.7315L20.7359 11.6268H11.8801ZM11.1877 10.169H21.9385C22.2179 10.169 22.4305 10.2936 22.5763 10.5426C22.7221 10.7916 22.7281 11.0437 22.5945 11.2988L20.007 15.9636C19.8734 16.2065 19.6942 16.3948 19.4695 16.5284C19.2448 16.6621 18.9988 16.7289 18.7315 16.7289H13.3014L12.4997 18.1866H21.2461V19.6443H12.4997C11.953 19.6443 11.54 19.4044 11.2606 18.9246C10.9812 18.4447 10.9691 17.9679 11.2242 17.4942L12.2081 15.7084L9.5842 10.169H8.12646V8.7113H10.4953L11.1877 10.169Z" fill="#F9FAFB"/>
</g>
</svg>
