<svg width="31" height="31" viewBox="0 0 31 31" fill="none" xmlns="http://www.w3.org/2000/svg">
<circle cx="15.2822" cy="15.2822" r="15.2822" fill="#F4C066"/>
<path d="M16.3432 22.515H14.0354V12.2391H16.3432V22.515ZM13.8929 9.57038C13.8929 9.21582 14.0037 8.92141 14.2253 8.68715C14.4533 8.45289 14.7762 8.33575 15.1941 8.33575C15.6119 8.33575 15.9348 8.45289 16.1628 8.68715C16.3907 8.92141 16.5047 9.21582 16.5047 9.57038C16.5047 9.91861 16.3907 10.2099 16.1628 10.4441C15.9348 10.672 15.6119 10.786 15.1941 10.786C14.7762 10.786 14.4533 10.672 14.2253 10.4441C14.0037 10.2099 13.8929 9.91861 13.8929 9.57038Z" fill="white"/>
</svg>
