<svg width="32" height="32" viewBox="0 0 32 32" fill="none" xmlns="http://www.w3.org/2000/svg">
<rect width="32" height="32" rx="16" fill="#BA2626"/>
<path d="M19.5312 9H13.4681C12.2834 9.00139 11.1476 9.47268 10.3099 10.3105C9.47229 11.1483 9.00119 12.2841 9 13.4688L9 19.5319C9.00139 20.7166 9.47268 21.8524 10.3105 22.6901C11.1483 23.5277 12.2841 23.9988 13.4688 24H19.5319C20.7166 23.9986 21.8524 23.5273 22.6901 22.6895C23.5277 21.8517 23.9988 20.7159 24 19.5312V13.4681C23.9986 12.2834 23.5273 11.1476 22.6895 10.3099C21.8517 9.47229 20.7159 9.00119 19.5312 9V9ZM22.4914 19.5312C22.4914 19.9199 22.4148 20.3048 22.266 20.664C22.1173 21.0231 21.8992 21.3495 21.6243 21.6243C21.3495 21.8992 21.0231 22.1173 20.664 22.266C20.3048 22.4148 19.9199 22.4914 19.5312 22.4914H13.4681C12.6831 22.4912 11.9304 22.1792 11.3754 21.6241C10.8204 21.069 10.5086 20.3161 10.5086 19.5312V13.4681C10.5088 12.6831 10.8208 11.9304 11.3759 11.3754C11.931 10.8204 12.6839 10.5086 13.4688 10.5086H19.5319C20.3169 10.5088 21.0696 10.8208 21.6246 11.3759C22.1796 11.931 22.4914 12.6839 22.4914 13.4688V19.5319V19.5312Z" fill="#F9FAFB"/>
<path d="M16.4996 12.6206C15.4713 12.6222 14.4857 13.0314 13.7587 13.7586C13.0317 14.4857 12.6227 15.4714 12.6213 16.4996C12.6225 17.5281 13.0315 18.5142 13.7587 19.2415C14.4859 19.9688 15.4718 20.378 16.5003 20.3794C17.5289 20.3782 18.5151 19.9691 19.2424 19.2418C19.9698 18.5144 20.3789 17.5283 20.3801 16.4996C20.3785 15.4712 19.9691 14.4853 19.2416 13.7582C18.5142 13.0312 17.5281 12.6224 16.4996 12.6214V12.6206ZM16.4996 18.8708C15.8709 18.8708 15.268 18.6211 14.8234 18.1765C14.3789 17.732 14.1292 17.1291 14.1292 16.5004C14.1292 15.8717 14.3789 15.2688 14.8234 14.8243C15.268 14.3797 15.8709 14.13 16.4996 14.13C17.1282 14.13 17.7312 14.3797 18.1757 14.8243C18.6202 15.2688 18.87 15.8717 18.87 16.5004C18.87 17.1291 18.6202 17.732 18.1757 18.1765C17.7312 18.6211 17.1282 18.8708 16.4996 18.8708Z" fill="#F9FAFB"/>
<path d="M20.3873 13.5795C20.9006 13.5795 21.3167 13.1634 21.3167 12.6501C21.3167 12.1368 20.9006 11.7207 20.3873 11.7207C19.874 11.7207 19.4579 12.1368 19.4579 12.6501C19.4579 13.1634 19.874 13.5795 20.3873 13.5795Z" fill="#F9FAFB"/>
</svg>
