<svg width="32" height="32" viewBox="0 0 32 32" fill="none" xmlns="http://www.w3.org/2000/svg">
<circle cx="16" cy="16" r="16" fill="#BA2626"/>
<path d="M15.5 6.3125C10.2558 6.3125 6 10.6523 6 16C6 21.3477 10.2558 25.6875 15.5 25.6875C20.7442 25.6875 25 21.3477 25 16C25 10.6523 20.7442 6.3125 15.5 6.3125ZM19.3575 20.5664C19.1966 20.5664 19.097 20.5156 18.9476 20.4258C16.5573 18.957 13.7762 18.8945 11.0296 19.4688C10.8802 19.5078 10.6849 19.5703 10.5738 19.5703C10.2022 19.5703 9.96855 19.2695 9.96855 18.9531C9.96855 18.5508 10.2022 18.3594 10.4895 18.2969C13.6268 17.5898 16.8331 17.6523 19.5681 19.3203C19.8018 19.4727 19.9397 19.6094 19.9397 19.9648C19.9397 20.3203 19.6677 20.5664 19.3575 20.5664ZM20.3879 18.0039C20.1887 18.0039 20.0546 17.9141 19.9167 17.8398C17.5226 16.3945 13.9524 15.8125 10.7768 16.6914C10.5929 16.7422 10.4933 16.793 10.321 16.793C9.91109 16.793 9.57782 16.4531 9.57782 16.0352C9.57782 15.6172 9.77702 15.3398 10.1716 15.2266C11.2365 14.9219 12.3244 14.6953 13.9179 14.6953C16.404 14.6953 18.8058 15.3242 20.6982 16.4727C21.0085 16.6602 21.131 16.9023 21.131 17.2422C21.1272 17.6641 20.8054 18.0039 20.3879 18.0039ZM21.5754 15.0273C21.3762 15.0273 21.2536 14.9766 21.0813 14.875C18.3538 13.2148 13.4774 12.8164 10.321 13.7148C10.1831 13.7539 10.0107 13.8164 9.82681 13.8164C9.32117 13.8164 8.93427 13.4141 8.93427 12.8945C8.93427 12.3633 9.25605 12.0625 9.60081 11.9609C10.9492 11.5586 12.4585 11.3672 14.1018 11.3672C16.8982 11.3672 19.8286 11.9609 21.97 13.2344C22.2687 13.4102 22.4641 13.6523 22.4641 14.1172C22.4641 14.6484 22.0427 15.0273 21.5754 15.0273Z" fill="white"/>
</svg>
