<svg width="18" height="20" viewBox="0 0 18 20" fill="none" xmlns="http://www.w3.org/2000/svg">
<path fill-rule="evenodd" clip-rule="evenodd" d="M9 0C8.11286 0 6.63043 0.33125 5.23543 0.7C3.80829 1.075 2.36958 1.51875 1.52358 1.7875C1.16987 1.90106 0.85628 2.10933 0.618842 2.38838C0.381405 2.66742 0.229747 3.00592 0.181293 3.365C-0.584993 8.96125 1.19315 13.1088 3.35058 15.8525C4.2658 17.0259 5.35661 18.0595 6.58672 18.9188C7.083 19.26 7.54329 19.5213 7.93414 19.7C8.29414 19.865 8.68114 20 9 20C9.31886 20 9.70457 19.865 10.0659 19.7C10.5375 19.4782 10.9884 19.2168 11.4133 18.9188C12.6434 18.0595 13.7342 17.0259 14.6494 15.8525C16.8068 13.1088 18.585 8.96125 17.8187 3.365C17.7705 3.0057 17.6189 2.66693 17.3815 2.38765C17.144 2.10836 16.8303 1.89991 16.4764 1.78625C15.2482 1.39501 14.0106 1.03241 12.7646 0.69875C11.3696 0.3325 9.88714 0 9 0ZM9 6.25C9.45545 6.24934 9.89644 6.40541 10.2449 6.69058C10.5933 6.97574 10.8267 7.37159 10.9037 7.80801C10.9807 8.24444 10.8963 8.69328 10.6656 9.07503C10.4348 9.45678 10.0725 9.74681 9.64286 9.89375L10.1379 12.3812C10.1559 12.4717 10.1531 12.565 10.1297 12.6543C10.1063 12.7436 10.0629 12.8267 10.0025 12.8978C9.94221 12.9689 9.86646 13.0261 9.78072 13.0654C9.69497 13.1047 9.60136 13.125 9.50657 13.125H8.49343C8.39875 13.1248 8.30528 13.1043 8.21969 13.065C8.13411 13.0256 8.05852 12.9684 7.99833 12.8973C7.93815 12.8263 7.89485 12.7432 7.87152 12.654C7.8482 12.5647 7.84544 12.4716 7.86343 12.3812L8.35714 9.89375C7.9275 9.74681 7.56521 9.45678 7.33444 9.07503C7.10367 8.69328 7.01932 8.24444 7.09632 7.80801C7.17331 7.37159 7.40669 6.97574 7.75513 6.69058C8.10356 6.40541 8.54455 6.24934 9 6.25Z" fill="white"/>
</svg>
